<?xml version="1.0" encoding="UTF-8"?>
<svg id="Layer_1" data-name="Layer 1" xmlns="http://www.w3.org/2000/svg" xmlns:xlink="http://www.w3.org/1999/xlink" viewBox="0 0 512 512">
  <defs>
    <style>
      .cls-1 {
        fill: url(#linear-gradient-2);
      }

      .cls-2 {
        fill: url(#linear-gradient-4);
      }

      .cls-3 {
        fill: url(#linear-gradient-3);
      }

      .cls-4 {
        fill: url(#linear-gradient);
      }
    </style>
    <linearGradient id="linear-gradient" x1="210.2" y1="365" x2="260.93" y2="60.7" gradientUnits="userSpaceOnUse">
      <stop offset=".02" stop-color="#4237bf"/>
      <stop offset=".98" stop-color="#9a50fd"/>
    </linearGradient>
    <linearGradient id="linear-gradient-2" x1="206.27" y1="487.98" x2="277.21" y2="218.45" xlink:href="#linear-gradient"/>
    <linearGradient id="linear-gradient-3" x1="221.94" y1="195.32" x2="265.15" y2="120.48" gradientUnits="userSpaceOnUse">
      <stop offset=".06" stop-color="#4237bf"/>
      <stop offset=".74" stop-color="#9a50fd"/>
    </linearGradient>
    <linearGradient id="linear-gradient-4" x1="212.82" y1="253.25" x2="249.42" y2="189.85" xlink:href="#linear-gradient-3"/>
  </defs>
  <path class="cls-4" d="M363.7,91.03l-48-48c-2.25-2.25-5.3-3.51-8.49-3.51h-154.68c-15.71,0-28.45,12.74-28.45,28.45v218.43c0,3.1,4.1,4.2,5.65,1.52l16.66-28.78c1.1-1.91,1.68-4.07,1.68-6.27V67.96c0-2.46,1.99-4.45,4.45-4.45h136.16v38.29c0,8.89,7.21,16.1,16.1,16.1h38.42v121.1c0,1,.81,1.82,1.82,1.82h20.37c1,0,1.82-.81,1.82-1.82V99.51c0-3.18-1.26-6.23-3.51-8.49ZM312.69,73.96l19.94,19.94h-19.94v-19.94Z"/>
  <path class="cls-1" d="M468.32,269.35h-52.23v-59.87c0-6.63-5.37-12-12-12s-12,5.37-12,12v59.87h-211.97c-8.97,0-17.19,5-21.31,12.96l-78.2,150.99v-228.39c0-4.6,3.75-8.35,8.35-8.35h4.96c6.63,0,12-5.37,12-12s-5.37-12-12-12h-4.96c-17.84,0-32.35,14.51-32.35,32.35v230.02c0,13.23,10.77,24,24,24l296.46-.2c11.96,0,22.92-6.67,28.42-17.28l77.04-148.75c5.52-10.65-2.21-23.36-14.21-23.36Z"/>
  <path class="cls-3" d="M303.96,170.9h-120.82c-7.18,0-13-5.82-13-13s5.82-13,13-13h120.82c7.18,0,13,5.82,13,13s-5.82,13-13,13Z"/>
  <path class="cls-2" d="M278.32,234.55h-94.41c-7.18,0-13-5.82-13-13s5.82-13,13-13h94.41c7.18,0,13,5.82,13,13s-5.82,13-13,13Z"/>
</svg>