<?xml version="1.0" encoding="UTF-8"?>
<svg id="Layer_1" data-name="Layer 1" xmlns="http://www.w3.org/2000/svg" xmlns:xlink="http://www.w3.org/1999/xlink" viewBox="0 0 512 512">
  <defs>
    <style>
      .cls-1 {
        fill: url(#linear-gradient-2);
      }

      .cls-2 {
        fill: url(#linear-gradient-3);
      }

      .cls-3 {
        fill: #9a50fd;
      }

      .cls-4 {
        fill: url(#linear-gradient);
      }
    </style>
    <linearGradient id="linear-gradient" x1="217.06" y1="521.9" x2="274.46" y2="364.22" gradientUnits="userSpaceOnUse">
      <stop offset=".02" stop-color="#4237bf"/>
      <stop offset=".98" stop-color="#9a50fd"/>
    </linearGradient>
    <linearGradient id="linear-gradient-2" x1="47.93" y1="461.08" x2="113.27" y2="281.56" xlink:href="#linear-gradient"/>
    <linearGradient id="linear-gradient-3" x1="274.95" y1="327.71" x2="272.6" y2="38.93" xlink:href="#linear-gradient"/>
  </defs>
  <g>
    <path class="cls-4" d="M440.68,369.36l-1.36-1.37c-12.78-13.01-31.86-17.58-49.16-11.76l-67.67,24.06-.03.04c-3.49,15.85-17.62,27.74-34.5,27.74h-82.29c-6.76,0-12.52-4.28-14.71-10.29-.63-1.74.7-3.57,2.55-3.57h.04s93.9,0,93.9,0c11.64,0,21.55-9.05,21.96-20.68.43-12.21-9.33-22.24-21.44-22.24h-45.68c-15.65-17.51-38.01-27.55-61.52-27.55-23.14,0-53.26,0-64.07,0-2.26,0-4.08,1.83-4.08,4.08l.03,95.94c0,2.36,1.45,4.48,3.66,5.33l104.81,40.44c20.94,8.04,44.31,6.8,64.29-3.38l152.17-77.67c7.23-3.68,8.8-13.32,3.12-19.12Z"/>
    <rect class="cls-1" x="54.17" y="306.26" width="47.48" height="144.86" rx="12.95" ry="12.95"/>
  </g>
  <path class="cls-3" d="M275.56,314.63c-1.73,0-3.45-.52-4.93-1.57-17.14-12.2-26.97-30.62-26.97-50.56h17c0,12.37,5.36,24.01,14.89,32.73,9.54-8.72,14.9-20.36,14.9-32.73h17c0,19.94-9.83,38.37-26.97,50.56-1.47,1.05-3.2,1.57-4.93,1.57Z"/>
  <path class="cls-2" d="M364.26,212.64c-.31-1.92-7.12-42.1-35.64-51.22l2.68-35.82c1.31-17.47-2.66-34.61-11.47-49.57l-25.08-42.59c-4.41-7.49-12.15-11.96-20.7-11.96h0c-8.55,0-16.29,4.47-20.7,11.96l-25.08,42.59c-8.81,14.96-12.77,32.1-11.47,49.57l2.68,35.8c-28.56,9.09-35.38,49.31-35.69,51.23-.42,2.59.32,5.24,2.02,7.25,1.7,2,4.19,3.17,6.81,3.18l31.48.18.59,7.87c.45,6,5.45,10.64,11.47,10.64h75.77c6.02,0,11.02-4.64,11.47-10.64l.59-7.87,31.43-.18c2.63-.02,5.12-1.18,6.81-3.18,1.7-2,2.44-4.65,2.02-7.25ZM204.27,205.14c2.76-8.31,7.9-19.4,16.64-24.61l1.85,24.72-18.49-.11ZM308.36,123.89l-7.1,94.87h-54.42l-7.1-94.87c-.96-12.77,1.93-25.29,8.35-36.19l22.77-38.67c1.76-2.98,4.63-2.98,6.39,0l22.77,38.67c6.42,10.9,9.3,23.41,8.35,36.19ZM325.34,205.24l1.85-24.69c8.72,5.22,13.84,16.29,16.59,24.58l-18.44.11Z"/>
  <circle class="cls-3" cx="274.3" cy="117.05" r="18.52"/>
</svg>